<svg width="27" height="28" viewBox="0 0 27 28" fill="none" xmlns="http://www.w3.org/2000/svg">
<path d="M8.3999 3.61108C5.0931 3.61108 2.3999 6.57483 2.3999 10.2138V24.7398C2.3999 28.3788 5.0931 31.3426 8.3999 31.3426H21.5999C24.9067 31.3426 27.5999 28.3788 27.5999 24.7398V10.2138C27.5999 6.57483 24.9067 3.61108 21.5999 3.61108H8.3999ZM8.3999 4.93163H21.5999C24.2583 4.93163 26.3999 7.28837 26.3999 10.2138V24.7398C26.3999 27.6653 24.2583 30.022 21.5999 30.022H8.3999C5.7415 30.022 3.5999 27.6653 3.5999 24.7398V10.2138C3.5999 7.28837 5.7415 4.93163 8.3999 4.93163ZM7.7999 10.8741C6.81292 10.8741 5.9999 11.7688 5.9999 12.8549V22.0987C5.9999 23.1849 6.81292 24.0796 7.7999 24.0796H22.1999C23.1869 24.0796 23.9999 23.1849 23.9999 22.0987V12.8549C23.9999 11.7688 23.1869 10.8741 22.1999 10.8741H7.7999ZM8.04834 12.1946H21.9503L16.6065 18.0662C15.7109 19.0502 14.278 19.0501 13.3827 18.0649L8.04834 12.1946ZM22.7999 13.127V21.8266L18.8413 17.4768L22.7999 13.127ZM7.1999 13.1283L11.1515 17.4768L7.1999 21.8253V13.1283ZM17.9929 18.4092L21.9515 22.759H8.04834L11.9999 18.4105L12.5343 18.9986C13.8878 20.488 16.0995 20.4891 17.4538 19.0011L17.9929 18.4092Z" fill="white"/>
</svg>
