<svg width="27" height="28" viewBox="0 0 27 28" fill="none" xmlns="http://www.w3.org/2000/svg">
<path d="M3.21429 0.97168C1.44674 0.97168 0 2.41901 0 4.18727V24.7671C0 26.5353 1.44674 27.9827 3.21429 27.9827H23.7857C25.5533 27.9827 27 26.5353 27 24.7671V4.18727C27 2.41901 25.5533 0.97168 23.7857 0.97168H3.21429ZM3.21429 2.25792H23.7857C24.8583 2.25792 25.7143 3.11424 25.7143 4.18727V24.7671C25.7143 25.8401 24.8583 26.6964 23.7857 26.6964H3.21429C2.14169 26.6964 1.28571 25.8401 1.28571 24.7671V4.18727C1.28571 3.11424 2.14169 2.25792 3.21429 2.25792ZM13.5 3.54415C10.3119 3.54415 7.71429 6.14284 7.71429 9.33222C7.71429 12.5216 10.3119 15.1203 13.5 15.1203C16.6881 15.1203 19.2857 12.5216 19.2857 9.33222C19.2857 6.14284 16.6881 3.54415 13.5 3.54415ZM13.5 4.83039C15.9935 4.83039 18 6.83772 18 9.33222C18 11.8267 15.9935 13.8341 13.5 13.8341C11.0065 13.8341 9 11.8267 9 9.33222C9 6.83772 11.0065 4.83039 13.5 4.83039ZM13.5 6.11663C11.7324 6.11663 10.2857 7.56392 10.2857 9.33222C10.2857 11.1005 11.7324 12.5478 13.5 12.5478C15.2676 12.5478 16.7143 11.1005 16.7143 9.33222C16.7143 7.56392 15.2676 6.11663 13.5 6.11663ZM13.5 7.40287C14.5727 7.40287 15.4286 8.25905 15.4286 9.33222C15.4286 10.4054 14.5727 11.2616 13.5 11.2616C12.4273 11.2616 11.5714 10.4054 11.5714 9.33222C11.5714 8.25905 12.4273 7.40287 13.5 7.40287ZM18.6115 14.7962C18.2396 14.8011 17.8659 14.9121 17.5405 15.1379H17.5392L17.5379 15.1391C16.3497 15.9698 14.9582 16.4065 13.5 16.4065C12.0454 16.4065 10.6565 15.9717 9.46833 15.1454C8.5999 14.5403 7.387 14.7587 6.7839 15.6278C6.1799 16.4963 6.39803 17.7092 7.26604 18.3133C8.00625 18.828 8.84462 19.1242 9.67299 19.4362L6.99358 22.1167C6.24589 22.8647 6.24589 24.097 6.99358 24.845C7.3674 25.2189 7.86477 25.4102 8.35714 25.4102C8.84951 25.4102 9.34689 25.2189 9.7207 24.845L13.5 21.0641L17.2793 24.845C17.6531 25.2189 18.1505 25.4102 18.6429 25.4102C19.1352 25.4102 19.6326 25.2189 20.0064 24.845C20.7541 24.097 20.7541 22.8647 20.0064 22.1167L17.3961 19.5041C18.2159 19.1919 19.0137 18.8158 19.7465 18.3045C20.6131 17.6991 20.8301 16.4857 20.2249 15.6177C19.9225 15.1838 19.4675 14.9132 18.9806 14.8264C18.8589 14.8047 18.7354 14.7946 18.6115 14.7962ZM18.7559 16.085C18.9169 16.1136 19.067 16.2057 19.1702 16.3538C19.3775 16.6511 19.3077 17.0419 19.0107 17.2494C18.1055 17.881 17.1099 18.3405 16.0601 18.6286L14.9941 18.9212L15.7751 19.7038L19.0974 23.0261C19.3538 23.2827 19.3538 23.679 19.0974 23.9355C18.9685 24.0645 18.8088 24.124 18.6429 24.124C18.4769 24.124 18.3172 24.0645 18.1883 23.9355L13.5 19.2453L8.81166 23.9355C8.68276 24.0645 8.52306 24.124 8.35714 24.124C8.19123 24.124 8.03152 24.0645 7.90262 23.9355C7.64617 23.679 7.64617 23.2827 7.90262 23.0261L12.0059 18.9212L10.9399 18.6286C9.8939 18.341 8.9027 17.8843 8.00056 17.2569C7.70243 17.0494 7.63256 16.6606 7.83984 16.3626V16.3613C8.04546 16.065 8.43739 15.994 8.73382 16.2005V16.2018C10.1351 17.1763 11.7879 17.6928 13.5 17.6928C15.2156 17.6928 16.8716 17.174 18.2737 16.1943C18.4229 16.0907 18.5948 16.0564 18.7559 16.085Z" fill="white"/>
</svg>
