<svg width="27" height="28" viewBox="0 0 27 28" fill="none" xmlns="http://www.w3.org/2000/svg">
<path d="M3 0.97168C1.3425 0.97168 0 2.31473 0 3.9729V24.9814C0 26.6396 1.3425 27.9827 3 27.9827H24C25.6575 27.9827 27 26.6396 27 24.9814V3.9729C27 2.31473 25.6575 0.97168 24 0.97168H3ZM3 3.9729H24V24.9814H3V3.9729ZM13.1865 9.76139C12.3015 9.75388 11.5515 9.76533 11.127 9.97241C10.845 10.1105 10.6272 10.4204 10.7607 10.4384C10.9242 10.4594 11.2937 10.5376 11.4932 10.8077C11.7467 11.1544 11.7393 11.9332 11.7393 11.9332C11.7393 11.9332 11.884 14.0752 11.3965 14.3424C11.062 14.5254 10.6037 14.1537 9.61816 12.449C9.11266 11.5741 8.7334 10.6084 8.7334 10.6084C8.7334 10.6084 8.65882 10.426 8.52832 10.33C8.36782 10.2129 8.14453 10.1746 8.14453 10.1746L5.78906 10.1864C5.78906 10.1864 5.43323 10.1871 5.30273 10.3417C5.18723 10.4798 5.29395 10.752 5.29395 10.752C5.29395 10.752 7.14045 15.0577 9.23145 17.2381C11.1499 19.2369 13.3242 19.0552 13.3242 19.0552H14.3115C14.3115 19.0552 14.6112 19.0722 14.7627 18.9087C14.9022 18.7571 14.8975 18.5218 14.8975 18.5218C14.8975 18.5218 14.8787 17.1957 15.4922 17.0007C16.0982 16.8086 16.8747 18.2814 17.6982 18.8471C18.3192 19.2763 18.7939 19.1842 18.7939 19.1842L20.9971 19.1549C20.9971 19.1549 22.1479 19.0825 21.6064 18.1701C21.5614 18.0951 21.2887 17.4984 19.9688 16.2709C18.5858 14.9863 18.7711 15.1931 20.4346 12.9707C21.4486 11.6187 21.8541 10.7926 21.7266 10.4384C21.6051 10.0993 20.8594 10.1893 20.8594 10.1893L18.3809 10.204C18.3809 10.204 18.1951 10.1771 18.0586 10.2596C17.9251 10.3407 17.8389 10.5263 17.8389 10.5263C17.8389 10.5263 17.4469 11.5752 16.9219 12.4666C15.8194 14.3469 15.3778 14.4447 15.1963 14.3277C14.7763 14.0576 14.8828 13.2379 14.8828 12.6542C14.8828 10.8324 15.1567 10.0723 14.3438 9.87569C14.0737 9.80966 13.8765 9.76889 13.1865 9.76139Z" fill="white"/>
</svg>
